<svg id="SvgjsSvg1001" width="998" height="517.5" xmlns="http://www.w3.org/2000/svg" version="1.1" xmlns:xlink="http://www.w3.org/1999/xlink" xmlns:svgjs="http://svgjs.com/svgjs"><defs id="SvgjsDefs1002"><marker id="SvgjsMarker1120" markerWidth="14" markerHeight="10" refX="10" refY="5" viewBox="0 0 14 10" orient="auto" markerUnits="userSpaceOnUse" stroke-dasharray="0,0"><path id="SvgjsPath1121" d="M0,0 L14,5 L0,10 L0,0" fill="#b0e38f" stroke="#b0e38f" stroke-width="1"></path></marker><marker id="SvgjsMarker1124" markerWidth="14" markerHeight="10" refX="10" refY="5" viewBox="0 0 14 10" orient="auto" markerUnits="userSpaceOnUse" stroke-dasharray="0,0"><path id="SvgjsPath1125" d="M0,0 L14,5 L0,10 L0,0" fill="#b0e38f" stroke="#b0e38f" stroke-width="1"></path></marker><marker id="SvgjsMarker1136" markerWidth="14" markerHeight="10" refX="10" refY="5" viewBox="0 0 14 10" orient="auto" markerUnits="userSpaceOnUse" stroke-dasharray="0,0"><path id="SvgjsPath1137" d="M0,0 L14,5 L0,10 L0,0" fill="#b0e38f" stroke="#b0e38f" stroke-width="1"></path></marker><marker id="SvgjsMarker1146" markerWidth="14" markerHeight="10" refX="10" refY="5" viewBox="0 0 14 10" orient="auto" markerUnits="userSpaceOnUse" stroke-dasharray="0,0"><path id="SvgjsPath1147" d="M0,0 L14,5 L0,10 L0,0" fill="#323232" stroke="#323232" stroke-width="1"></path></marker><marker id="SvgjsMarker1156" markerWidth="14" markerHeight="10" refX="10" refY="5" viewBox="0 0 14 10" orient="auto" markerUnits="userSpaceOnUse" stroke-dasharray="0,0"><path id="SvgjsPath1157" d="M0,0 L14,5 L0,10 L0,0" fill="#323232" stroke="#323232" stroke-width="1"></path></marker><marker id="SvgjsMarker1168" markerWidth="14" markerHeight="10" refX="10" refY="5" viewBox="0 0 14 10" orient="auto" markerUnits="userSpaceOnUse" stroke-dasharray="0,0"><path id="SvgjsPath1169" d="M0,0 L14,5 L0,10 L0,0" fill="#b0e38f" stroke="#b0e38f" stroke-width="1"></path></marker><marker id="SvgjsMarker1194" markerWidth="14" markerHeight="10" refX="10" refY="5" viewBox="0 0 14 10" orient="auto" markerUnits="userSpaceOnUse" stroke-dasharray="0,0"><path id="SvgjsPath1195" d="M0,0 L14,5 L0,10 L0,0" fill="#323232" stroke="#323232" stroke-width="1"></path></marker><marker id="SvgjsMarker1198" markerWidth="14" markerHeight="10" refX="10" refY="5" viewBox="0 0 14 10" orient="auto" markerUnits="userSpaceOnUse" stroke-dasharray="0,0"><path id="SvgjsPath1199" d="M0,0 L14,5 L0,10 L0,0" fill="#323232" stroke="#323232" stroke-width="1"></path></marker><marker id="SvgjsMarker1210" markerWidth="14" markerHeight="10" refX="10" refY="5" viewBox="0 0 14 10" orient="auto" markerUnits="userSpaceOnUse" stroke-dasharray="0,0"><path id="SvgjsPath1211" d="M0,0 L14,5 L0,10 L0,0" fill="#b0e38f" stroke="#b0e38f" stroke-width="1"></path></marker><marker id="SvgjsMarker1230" markerWidth="14" markerHeight="10" refX="10" refY="5" viewBox="0 0 14 10" orient="auto" markerUnits="userSpaceOnUse" stroke-dasharray="0,0"><path id="SvgjsPath1231" d="M0,0 L14,5 L0,10 L0,0" fill="#323232" stroke="#323232" stroke-width="1"></path></marker></defs><g id="SvgjsG1008" transform="translate(227,43.5)"><path id="SvgjsPath1009" d="M 0 0L 457 0L 457 449L 0 449Z" stroke="rgba(33,41,48,1)" stroke-width="2" fill-opacity="1" fill="#ffffff"></path><g id="SvgjsG1010"><text id="SvgjsText1011" font-family="微软雅黑" text-anchor="middle" font-size="13px" width="437px" fill="#323232" font-weight="400" align="middle" lineHeight="125%" anchor="middle" family="微软雅黑" size="13px" weight="400" font-style="" opacity="1" y="213.875" transform="rotate(0)"></text></g></g><g id="SvgjsG1012" transform="translate(256,124)"><path id="SvgjsPath1013" d="M 0 0L 111 0L 111 140L 0 140Z" stroke="rgba(33,41,48,1)" stroke-width="2" fill-opacity="1" fill="#ffffff"></path><g id="SvgjsG1014"><text id="SvgjsText1015" font-family="微软雅黑" text-anchor="middle" font-size="13px" width="91px" fill="#323232" font-weight="400" align="middle" lineHeight="125%" anchor="middle" family="微软雅黑" size="13px" weight="400" font-style="" opacity="1" y="59.375" transform="rotate(0)"></text></g></g><g id="SvgjsG1016" transform="translate(256,341.5)"><path id="SvgjsPath1017" d="M 0 0L 201 0L 201 121L 0 121Z" stroke="rgba(33,41,48,1)" stroke-width="2" fill-opacity="1" fill="#ffffff"></path><g id="SvgjsG1018"><text id="SvgjsText1019" font-family="微软雅黑" text-anchor="middle" font-size="13px" width="181px" fill="#323232" font-weight="400" align="middle" lineHeight="125%" anchor="middle" family="微软雅黑" size="13px" weight="400" font-style="" opacity="1" y="49.875" transform="rotate(0)"></text></g></g><g id="SvgjsG1020" transform="translate(261.5,290.5)"><path id="SvgjsPath1021" d="M 0 0L 100 0L 100 40L 0 40Z" stroke="none" fill="none"></path><g id="SvgjsG1022"><text id="SvgjsText1023" font-family="微软雅黑" text-anchor="middle" font-size="13px" width="100px" fill="#323232" font-weight="400" align="middle" lineHeight="125%" anchor="middle" family="微软雅黑" size="13px" weight="400" font-style="" opacity="1" y="9.375" transform="rotate(0)"><tspan id="SvgjsTspan1024" dy="16" x="50"><tspan id="SvgjsTspan1025" style="text-decoration:;">tomcat server</tspan></tspan></text></g></g><g id="SvgjsG1026" transform="translate(278,356.5)"><path id="SvgjsPath1027" d="M 0 0L 73 0L 73 34L 0 34Z" stroke="rgba(33,41,48,1)" stroke-width="2" fill-opacity="1" fill="#ffffff"></path><g id="SvgjsG1028"><text id="SvgjsText1029" font-family="微软雅黑" text-anchor="middle" font-size="13px" width="53px" fill="#323232" font-weight="400" align="middle" lineHeight="125%" anchor="middle" family="微软雅黑" size="13px" weight="400" font-style="" opacity="1" y="6.375" transform="rotate(0)"><tspan id="SvgjsTspan1030" dy="16" x="36.5"><tspan id="SvgjsTspan1031" style="text-decoration:;">db</tspan></tspan></text></g></g><g id="SvgjsG1032" transform="translate(278,411.5)"><path id="SvgjsPath1033" d="M 0 0L 73 0L 73 34L 0 34Z" stroke="rgba(33,41,48,1)" stroke-width="2" fill-opacity="1" fill="#ffffff"></path><g id="SvgjsG1034"><text id="SvgjsText1035" font-family="微软雅黑" text-anchor="middle" font-size="13px" width="53px" fill="#323232" font-weight="400" align="middle" lineHeight="125%" anchor="middle" family="微软雅黑" size="13px" weight="400" font-style="" opacity="1" y="6.375" transform="rotate(0)"><tspan id="SvgjsTspan1036" dy="16" x="36.5"><tspan id="SvgjsTspan1037" style="text-decoration:;">white ip</tspan></tspan></text></g></g><g id="SvgjsG1038" transform="translate(368,356.5)"><path id="SvgjsPath1039" d="M 0 0L 73 0L 73 34L 0 34Z" stroke="rgba(33,41,48,1)" stroke-width="2" fill-opacity="1" fill="#ffffff"></path><g id="SvgjsG1040"><text id="SvgjsText1041" font-family="微软雅黑" text-anchor="middle" font-size="13px" width="53px" fill="#323232" font-weight="400" align="middle" lineHeight="125%" anchor="middle" family="微软雅黑" size="13px" weight="400" font-style="" opacity="1" y="6.375" transform="rotate(0)"><tspan id="SvgjsTspan1042" dy="16" x="36.5"><tspan id="SvgjsTspan1043" style="text-decoration:;">user</tspan></tspan></text></g></g><g id="SvgjsG1044" transform="translate(368,411.5)"><path id="SvgjsPath1045" d="M 0 0L 73 0L 73 34L 0 34Z" stroke="rgba(33,41,48,1)" stroke-width="2" fill-opacity="1" fill="#ffffff"></path><g id="SvgjsG1046"><text id="SvgjsText1047" font-family="微软雅黑" text-anchor="middle" font-size="13px" width="53px" fill="#323232" font-weight="400" align="middle" lineHeight="125%" anchor="middle" family="微软雅黑" size="13px" weight="400" font-style="" opacity="1" y="6.375" transform="rotate(0)"><tspan id="SvgjsTspan1048" dy="16" x="36.5"><tspan id="SvgjsTspan1049" style="text-decoration:;">report</tspan></tspan></text></g></g><g id="SvgjsG1050" transform="translate(265,64.5)"><path id="SvgjsPath1051" d="M 0 0L 93 0L 93 29.5L 0 29.5Z" stroke="none" fill="none"></path><g id="SvgjsG1052"><text id="SvgjsText1053" font-family="微软雅黑" text-anchor="middle" font-size="13px" width="93px" fill="#323232" font-weight="400" align="middle" lineHeight="125%" anchor="middle" family="微软雅黑" size="13px" weight="400" font-style="" opacity="1" y="4.125" transform="rotate(0)"><tspan id="SvgjsTspan1054" dy="16" x="46.5"><tspan id="SvgjsTspan1055" style="text-decoration:;">proxy server</tspan></tspan></text></g></g><g id="SvgjsG1056" transform="translate(269,137.5)"><path id="SvgjsPath1057" d="M 0 0L 85 0L 85 29L 0 29Z" stroke="rgba(33,41,48,1)" stroke-width="2" fill-opacity="1" fill="#ffffff"></path><g id="SvgjsG1058"><text id="SvgjsText1059" font-family="微软雅黑" text-anchor="middle" font-size="13px" width="65px" fill="#323232" font-weight="400" align="middle" lineHeight="125%" anchor="middle" family="微软雅黑" size="13px" weight="400" font-style="" opacity="1" y="3.875" transform="rotate(0)"><tspan id="SvgjsTspan1060" dy="16" x="42.5"><tspan id="SvgjsTspan1061" style="text-decoration:;">random</tspan></tspan></text></g></g><g id="SvgjsG1062" transform="translate(269,179.5)"><path id="SvgjsPath1063" d="M 0 0L 85 0L 85 29L 0 29Z" stroke="rgba(33,41,48,1)" stroke-width="2" fill-opacity="1" fill="#ffffff"></path><g id="SvgjsG1064"><text id="SvgjsText1065" font-family="微软雅黑" text-anchor="middle" font-size="13px" width="65px" fill="#323232" font-weight="400" align="middle" lineHeight="125%" anchor="middle" family="微软雅黑" size="13px" weight="400" font-style="" opacity="1" y="3.875" transform="rotate(0)"><tspan id="SvgjsTspan1066" dy="16" x="42.5"><tspan id="SvgjsTspan1067" style="text-decoration:;">consistent</tspan></tspan></text></g></g><g id="SvgjsG1068" transform="translate(269,221.5)"><path id="SvgjsPath1069" d="M 0 0L 85 0L 85 29L 0 29Z" stroke="rgba(33,41,48,1)" stroke-width="2" fill-opacity="1" fill="#ffffff"></path><g id="SvgjsG1070"><text id="SvgjsText1071" font-family="微软雅黑" text-anchor="middle" font-size="13px" width="65px" fill="#323232" font-weight="400" align="middle" lineHeight="125%" anchor="middle" family="微软雅黑" size="13px" weight="400" font-style="" opacity="1" y="3.875" transform="rotate(0)"><tspan id="SvgjsTspan1072" dy="16" x="42.5"><tspan id="SvgjsTspan1073" style="text-decoration:;">static</tspan></tspan></text></g></g><g id="SvgjsG1074" transform="translate(514,88)"><path id="SvgjsPath1075" d="M 0 0L 125 0L 125 184L 0 184Z" stroke="rgba(33,41,48,1)" stroke-width="2" fill-opacity="1" fill="#ffffff"></path><g id="SvgjsG1076"><text id="SvgjsText1077" font-family="微软雅黑" text-anchor="middle" font-size="13px" width="105px" fill="#323232" font-weight="400" align="middle" lineHeight="125%" anchor="middle" family="微软雅黑" size="13px" weight="400" font-style="" opacity="1" y="81.375" transform="rotate(0)"></text></g></g><g id="SvgjsG1078" transform="translate(522.5,50.5)"><path id="SvgjsPath1079" d="M 0 0L 100 0L 100 40L 0 40Z" stroke="none" fill="none"></path><g id="SvgjsG1080"><text id="SvgjsText1081" font-family="微软雅黑" text-anchor="middle" font-size="13px" width="100px" fill="#323232" font-weight="400" align="middle" lineHeight="125%" anchor="middle" family="微软雅黑" size="13px" weight="400" font-style="" opacity="1" y="9.375" transform="rotate(0)"><tspan id="SvgjsTspan1082" dy="16" x="50"><tspan id="SvgjsTspan1083" style="text-decoration:;">AgentManager</tspan></tspan></text></g></g><g id="SvgjsG1084" transform="translate(533,112.49999999999997)"><path id="SvgjsPath1085" d="M 0 0L 79 0L 79 30.5L 0 30.5Z" stroke="rgba(33,41,48,1)" stroke-width="2" fill-opacity="1" fill="#ffffff"></path><g id="SvgjsG1086"><text id="SvgjsText1087" font-family="微软雅黑" text-anchor="middle" font-size="13px" width="59px" fill="#323232" font-weight="400" align="middle" lineHeight="125%" anchor="middle" family="微软雅黑" size="13px" weight="400" font-style="" opacity="1" y="4.625" transform="rotate(0)"><tspan id="SvgjsTspan1088" dy="16" x="39.5"><tspan id="SvgjsTspan1089" style="text-decoration:;">endpint1</tspan></tspan></text></g></g><g id="SvgjsG1090" transform="translate(533,152.83333333333331)"><path id="SvgjsPath1091" d="M 0 0L 79 0L 79 30.5L 0 30.5Z" stroke="rgba(33,41,48,1)" stroke-width="2" fill-opacity="1" fill="#ffffff"></path><g id="SvgjsG1092"><text id="SvgjsText1093" font-family="微软雅黑" text-anchor="middle" font-size="13px" width="59px" fill="#323232" font-weight="400" align="middle" lineHeight="125%" anchor="middle" family="微软雅黑" size="13px" weight="400" font-style="" opacity="1" y="4.625" transform="rotate(0)"><tspan id="SvgjsTspan1094" dy="16" x="39.5"><tspan id="SvgjsTspan1095" style="text-decoration:;">endpint2</tspan></tspan></text></g></g><g id="SvgjsG1096" transform="translate(533,193.16666666666666)"><path id="SvgjsPath1097" d="M 0 0L 79 0L 79 30.5L 0 30.5Z" stroke="rgba(33,41,48,1)" stroke-width="2" fill-opacity="1" fill="#ffffff"></path><g id="SvgjsG1098"><text id="SvgjsText1099" font-family="微软雅黑" text-anchor="middle" font-size="13px" width="59px" fill="#323232" font-weight="400" align="middle" lineHeight="125%" anchor="middle" family="微软雅黑" size="13px" weight="400" font-style="" opacity="1" y="4.625" transform="rotate(0)"><tspan id="SvgjsTspan1100" dy="16" x="39.5"><tspan id="SvgjsTspan1101" style="text-decoration:;">endpint3</tspan></tspan></text></g></g><g id="SvgjsG1102" transform="translate(533,233.5)"><path id="SvgjsPath1103" d="M 0 0L 79 0L 79 30.5L 0 30.5Z" stroke="rgba(33,41,48,1)" stroke-width="2" fill-opacity="1" fill="#ffffff"></path><g id="SvgjsG1104"><text id="SvgjsText1105" font-family="微软雅黑" text-anchor="middle" font-size="13px" width="59px" fill="#323232" font-weight="400" align="middle" lineHeight="125%" anchor="middle" family="微软雅黑" size="13px" weight="400" font-style="" opacity="1" y="4.625" transform="rotate(0)"><tspan id="SvgjsTspan1106" dy="16" x="39.5"><tspan id="SvgjsTspan1107" style="text-decoration:;">endpintn</tspan></tspan></text></g></g><g id="SvgjsG1108" transform="translate(82,195.5)"><path id="SvgjsPath1109" d="M 0 40.5C 0 -13.5 81 -13.5 81 40.5C 81 94.5 0 94.5 0 40.5Z" stroke="rgba(33,41,48,1)" stroke-width="2" fill-opacity="1" fill="#ffffff"></path><g id="SvgjsG1110"><text id="SvgjsText1111" font-family="微软雅黑" text-anchor="middle" font-size="13px" width="61px" fill="#323232" font-weight="400" align="middle" lineHeight="125%" anchor="middle" family="微软雅黑" size="13px" weight="400" font-style="" opacity="1" y="13.375" transform="rotate(0)"><tspan id="SvgjsTspan1112" dy="16" x="40.5"><tspan id="SvgjsTspan1113" style="text-decoration:;">request </tspan></tspan><tspan id="SvgjsTspan1114" dy="16" x="40.5"><tspan id="SvgjsTspan1115" style="text-decoration:;">baidu by </tspan></tspan><tspan id="SvgjsTspan1116" dy="16" x="40.5"><tspan id="SvgjsTspan1117" style="text-decoration:;">majora</tspan></tspan></text></g></g><g id="SvgjsG1118"><path id="SvgjsPath1119" d="M164 236L216 236L216 236L265.4 236" stroke="#b0e38f" stroke-width="2" fill="none" marker-end="url(#SvgjsMarker1120)"></path></g><g id="SvgjsG1122"><path id="SvgjsPath1123" d="M354.9598898130845 235.71962249245584C 380.9712810225988 236 379.7787189774012 194 403.29439667289597 195.009359027159" stroke="#b0e38f" stroke-width="2" fill="none" marker-end="url(#SvgjsMarker1124)"></path></g><g id="SvgjsG1126" transform="translate(736,243.8125)"><path id="SvgjsPath1127" d="M 0 0L 96 0L 96 54L 0 54Z" stroke="rgba(33,41,48,1)" stroke-width="2" fill-opacity="1" fill="#ffffff"></path><g id="SvgjsG1128"><text id="SvgjsText1129" font-family="微软雅黑" text-anchor="middle" font-size="13px" width="76px" fill="#323232" font-weight="400" align="middle" lineHeight="125%" anchor="middle" family="微软雅黑" size="13px" weight="400" font-style="" opacity="1" y="7.875" transform="rotate(0)"><tspan id="SvgjsTspan1130" dy="16" x="48"><tspan id="SvgjsTspan1131" style="text-decoration:;">android </tspan></tspan><tspan id="SvgjsTspan1132" dy="16" x="48"><tspan id="SvgjsTspan1133" style="text-decoration:;">phone</tspan></tspan></text></g></g><g id="SvgjsG1134"><path id="SvgjsPath1135" d="M612.9952666282851 208.51384865379364C 667.5254752593598 208.41666666666666 680.4745247406402 270.81250000000006 732.4170401381735 270.4626448463429" stroke-dasharray="3,3" stroke="#b0e38f" stroke-width="2" fill="none" marker-end="url(#SvgjsMarker1136)"></path></g><g id="SvgjsG1138" transform="translate(736,166.89583333333331)"><path id="SvgjsPath1139" d="M 0 0L 96 0L 96 54L 0 54Z" stroke="rgba(33,41,48,1)" stroke-width="2" fill-opacity="1" fill="#ffffff"></path><g id="SvgjsG1140"><text id="SvgjsText1141" font-family="微软雅黑" text-anchor="middle" font-size="13px" width="76px" fill="#323232" font-weight="400" align="middle" lineHeight="125%" anchor="middle" family="微软雅黑" size="13px" weight="400" font-style="" opacity="1" y="16.375" transform="rotate(0)"><tspan id="SvgjsTspan1142" dy="16" x="48"><tspan id="SvgjsTspan1143" style="text-decoration:;">vps</tspan></tspan></text></g></g><g id="SvgjsG1144"><path id="SvgjsPath1145" d="M612.9989510784642 168.1291235379099C 662.583254393129 168.08333333333331 685.416745606871 192.89583333333331 732.4037761175288 192.7309885968576" stroke-dasharray="3,3" stroke="#323232" stroke-width="2" fill="none" marker-end="url(#SvgjsMarker1146)"></path></g><g id="SvgjsG1148" transform="translate(736,95.8125)"><path id="SvgjsPath1149" d="M 0 0L 96 0L 96 54L 0 54Z" stroke="rgba(33,41,48,1)" stroke-width="2" fill-opacity="1" fill="#ffffff"></path><g id="SvgjsG1150"><text id="SvgjsText1151" font-family="微软雅黑" text-anchor="middle" font-size="13px" width="76px" fill="#323232" font-weight="400" align="middle" lineHeight="125%" anchor="middle" family="微软雅黑" size="13px" weight="400" font-style="" opacity="1" y="16.375" transform="rotate(0)"><tspan id="SvgjsTspan1152" dy="16" x="48"><tspan id="SvgjsTspan1153" style="text-decoration:;">windows pc</tspan></tspan></text></g></g><g id="SvgjsG1154"><path id="SvgjsPath1155" d="M612.9999555755342 127.7405741335595C 661.6393052429222 127.74999999999997 686.3606947570778 122.8125 732.4001599280771 122.84643311918566" stroke-dasharray="3,3" stroke="#323232" stroke-width="2" fill="none" marker-end="url(#SvgjsMarker1156)"></path></g><g id="SvgjsG1158" transform="translate(406.75,170)"><path id="SvgjsPath1159" d="M 0 0L 77.5 0L 77.5 48L 0 48Z" stroke="rgba(33,41,48,1)" stroke-width="2" fill-opacity="1" fill="#bfbfbf"></path><g id="SvgjsG1160"><text id="SvgjsText1161" font-family="微软雅黑" text-anchor="middle" font-size="13px" width="58px" fill="#323232" font-weight="400" align="middle" lineHeight="125%" anchor="middle" family="微软雅黑" size="13px" weight="400" font-style="" opacity="1" y="4.875" transform="rotate(0)"><tspan id="SvgjsTspan1162" dy="16" x="39"><tspan id="SvgjsTspan1163" style="text-decoration:;"> mapping</tspan></tspan><tspan id="SvgjsTspan1164" dy="16" x="39"><tspan id="SvgjsTspan1165" style="text-decoration:;">rule</tspan></tspan></text></g></g><g id="SvgjsG1166"><path id="SvgjsPath1167" d="M485.23740676711094 194.15820201093396C 504.58480868964455 194 512.6651913103555 208.41666666666666 529.4453356384006 207.84713942730437" stroke="#b0e38f" stroke-width="2" fill="none" marker-end="url(#SvgjsMarker1168)"></path></g><g id="SvgjsG1170" transform="translate(504,341.5)"><path id="SvgjsPath1171" d="M 0 0L 152.5 0L 152.5 121L 0 121Z" stroke="rgba(33,41,48,1)" stroke-width="2" fill-opacity="1" fill="#ffffff"></path><g id="SvgjsG1172"><text id="SvgjsText1173" font-family="微软雅黑" text-anchor="middle" font-size="13px" width="133px" fill="#323232" font-weight="400" align="middle" lineHeight="125%" anchor="middle" family="微软雅黑" size="13px" weight="400" font-style="" opacity="1" y="49.875" transform="rotate(0)"></text></g></g><g id="SvgjsG1174" transform="translate(514,355)"><path id="SvgjsPath1175" d="M 0 0L 59 0L 59 37L 0 37Z" stroke="rgba(33,41,48,1)" stroke-width="2" fill-opacity="1" fill="#ffffff"></path><g id="SvgjsG1176"><text id="SvgjsText1177" font-family="微软雅黑" text-anchor="middle" font-size="13px" width="39px" fill="#323232" font-weight="400" align="middle" lineHeight="125%" anchor="middle" family="微软雅黑" size="13px" weight="400" font-style="" opacity="1" y="7.875" transform="rotate(0)"><tspan id="SvgjsTspan1178" dy="16" x="29.5"><tspan id="SvgjsTspan1179" style="text-decoration:;">count</tspan></tspan></text></g></g><g id="SvgjsG1180" transform="translate(592,355.75)"><path id="SvgjsPath1181" d="M 0 0L 57 0L 57 35.5L 0 35.5Z" stroke="rgba(33,41,48,1)" stroke-width="2" fill-opacity="1" fill="#ffffff"></path><g id="SvgjsG1182"><text id="SvgjsText1183" font-family="微软雅黑" text-anchor="middle" font-size="13px" width="37px" fill="#323232" font-weight="400" align="middle" lineHeight="125%" anchor="middle" family="微软雅黑" size="13px" weight="400" font-style="" opacity="1" y="7.125" transform="rotate(0)"><tspan id="SvgjsTspan1184" dy="16" x="28.5"><tspan id="SvgjsTspan1185" style="text-decoration:;">flow</tspan></tspan></text></g></g><g id="SvgjsG1186" transform="translate(522.25,412.5)"><path id="SvgjsPath1187" d="M 0 0L 108.5 0L 108.5 32L 0 32Z" stroke="rgba(33,41,48,1)" stroke-width="2" fill-opacity="1" fill="#ffffff"></path><g id="SvgjsG1188"><text id="SvgjsText1189" font-family="微软雅黑" text-anchor="middle" font-size="13px" width="89px" fill="#323232" font-weight="400" align="middle" lineHeight="125%" anchor="middle" family="微软雅黑" size="13px" weight="400" font-style="" opacity="1" y="5.375" transform="rotate(0)"><tspan id="SvgjsTspan1190" dy="16" x="54.5"><tspan id="SvgjsTspan1191" style="text-decoration:;">access record</tspan></tspan></text></g></g><g id="SvgjsG1192"><path id="SvgjsPath1193" d="M355 194C 375.1 194 385.65 194 403.15 194" stroke="#323232" stroke-width="2" fill="none" marker-end="url(#SvgjsMarker1194)"></path></g><g id="SvgjsG1196"><path id="SvgjsPath1197" d="M354.9598898130845 152.28037750754416C 380.9712810225988 152 379.7787189774012 194 403.29439667289597 192.990640972841" stroke="#323232" stroke-width="2" fill="none" marker-end="url(#SvgjsMarker1198)"></path></g><g id="SvgjsG1200" transform="translate(871,217.79166666666666)"><path id="SvgjsPath1201" d="M 12.24 70.29166666666667C -10.200000000000001 50.208333333333336 4.08 35.145833333333336 9.18 30.125C 7.140000000000001 5.020833333333334 32.64 0 42.839999999999996 10.041666666666668C 51 -5.020833333333334 76.5 0 76.5 15.0625C 96.89999999999999 10.041666666666668 105.06 30.125 96.89999999999999 55.22916666666667C 104.04 75.3125 96.89999999999999 100.41666666666667 73.44 90.375C 68.34 103.42916666666667 47.94 103.42916666666667 42.839999999999996 90.375C 32.64 100.41666666666667 12.24 95.39583333333333 12.24 70.29166666666667Z" stroke="rgba(33,41,48,1)" stroke-width="2" fill-opacity="1" fill="#ffffff"></path><g id="SvgjsG1202"><text id="SvgjsText1203" font-family="微软雅黑" text-anchor="middle" font-size="13px" width="82px" fill="#323232" font-weight="400" align="middle" lineHeight="125%" anchor="middle" family="微软雅黑" size="13px" weight="400" font-style="" opacity="1" y="31.083333333333336" transform="rotate(0)"><tspan id="SvgjsTspan1204" dy="16" x="51"><tspan id="SvgjsTspan1205" style="text-decoration:;">https://www.</tspan></tspan><tspan id="SvgjsTspan1206" dy="16" x="51"><tspan id="SvgjsTspan1207" style="text-decoration:;">baidu.com</tspan></tspan></text></g></g><g id="SvgjsG1208"><path id="SvgjsPath1209" d="M832.9999202784007 270.8251268302855C 847.6405122997937 270.81250000000006 855.8924252332374 272.0480624583469 867.4669633522899 268.6911237558769" stroke-dasharray="3,3" stroke="#b0e38f" stroke-width="2" fill="none" marker-end="url(#SvgjsMarker1210)"></path></g><g id="SvgjsG1212" transform="translate(477.5,294.5)"><path id="SvgjsPath1213" d="M 0 0L 100 0L 100 40L 0 40Z" stroke="none" fill="none"></path><g id="SvgjsG1214"><text id="SvgjsText1215" font-family="微软雅黑" text-anchor="middle" font-size="13px" width="100px" fill="#323232" font-weight="400" align="middle" lineHeight="125%" anchor="middle" family="微软雅黑" size="13px" weight="400" font-style="" opacity="1" y="9.375" transform="rotate(0)"><tspan id="SvgjsTspan1216" dy="16" x="50"><tspan id="SvgjsTspan1217" style="text-decoration:;">monitor</tspan></tspan></text></g></g><g id="SvgjsG1218" transform="translate(731,25)"><path id="SvgjsPath1219" d="M 0 0L 226 0L 242 16L 242 63L 0 63L 0 0Z" stroke="none" fill-opacity="1" fill="#fff7bc"></path><path id="SvgjsPath1220" d="M 226 0L 226 16L 242 16Z" stroke="none" fill-opacity="1" fill="#e4d089"></path><path id="SvgjsPath1221" d="M 0 0L 226 0L 242 16L 242 63L 0 63L 0 0Z" stroke="none" fill="none"></path><g id="SvgjsG1222"><text id="SvgjsText1223" font-family="微软雅黑" text-anchor="middle" font-size="13px" width="222px" fill="#323232" font-weight="400" align="middle" lineHeight="125%" anchor="middle" family="微软雅黑" size="13px" weight="400" font-style="" opacity="1" y="12.375" transform="rotate(0)"><tspan id="SvgjsTspan1224" dy="16" x="121"><tspan id="SvgjsTspan1225" style="text-decoration:;">终端设备和majora服务器通过长链接</tspan></tspan><tspan id="SvgjsTspan1226" dy="16" x="121"><tspan id="SvgjsTspan1227" style="text-decoration:;">构建通信隧道，实现nat内网穿透</tspan></tspan></text></g></g><g id="SvgjsG1228"><path id="SvgjsPath1229" d="M731 56.5C 705.4093767172427 56.5 714.8 91.3 704 114.5" stroke="#323232" stroke-width="2" fill="none" marker-end="url(#SvgjsMarker1230)"></path></g><g id="SvgjsG1232" transform="translate(25,294.5)"><path id="SvgjsPath1233" d="M 0 0L 195 0L 195 51.4375L 0 51.4375Z" stroke="rgba(255,255,255,1)" stroke-width="0.5" fill-opacity="1" fill="#ffffff"></path><g id="SvgjsG1234"><text id="SvgjsText1235" font-family="微软雅黑" text-anchor="middle" font-size="12px" width="175px" fill="#323232" font-weight="400" align="middle" lineHeight="125%" anchor="middle" family="微软雅黑" size="12px" weight="400" font-style="" opacity="1" y="0.71875" transform="rotate(0)"><tspan id="SvgjsTspan1236" dy="15" x="97.5"><tspan id="SvgjsTspan1237" style="text-decoration:;fill: rgb(50, 50, 50);">curl -x </tspan></tspan><tspan id="SvgjsTspan1238" dy="15" x="97.5"><tspan id="SvgjsTspan1239" style="text-decoration:;fill: rgb(50, 50, 50);">majora:majora@majora.iinti.cn </tspan></tspan><tspan id="SvgjsTspan1240" dy="15" x="97.5"><tspan id="SvgjsTspan1241" style="text-decoration:;fill: rgb(50, 50, 50);">https://www.baidu.com</tspan></tspan></text></g></g></svg>